<svg xmlns="http://www.w3.org/2000/svg" viewBox="0 0 750 500"><g id="freepik--background-complete--inject-14"><path d="M94.1,384.6v45.3H86.54v4.92H94.1v30.33H235.51v-27.6H225v-6h10.48v-9h4.65v-4.1h-5.53V384.6Z" style="fill:#f5f5f5"></path><polygon points="197.96 384.73 197.96 464.64 235.51 464.64 235.51 437.05 225.03 437.05 225.03 431.54 235.51 431.73 235.51 422.71 240.25 422.72 240.16 418.06 234.63 417.93 234.63 384.6 197.96 384.73" style="fill:#ebebeb"></polygon><path d="M200.63,434.17c0,.28-25.59.5-57.14.5s-57.15-.22-57.15-.5,25.58-.5,57.15-.5S200.63,433.89,200.63,434.17Z" style="fill:#e0e0e0"></path><path d="M200.63,429.57c0,.28-25.59.5-57.14.5s-57.15-.22-57.15-.5,25.58-.5,57.15-.5S200.63,429.29,200.63,429.57Z" style="fill:#e0e0e0"></path><path d="M208,417.18c0,.28-25.59.51-57.14.51s-57.15-.23-57.15-.51,25.58-.5,57.15-.5S208,416.91,208,417.18Z" style="fill:#e0e0e0"></path><path d="M208.68,450.94c0,.27-25.59.5-57.15.5s-57.14-.23-57.14-.5,25.58-.51,57.14-.51S208.68,450.66,208.68,450.94Z" style="fill:#e0e0e0"></path><path d="M392.08,72.91a41.89,41.89,0,0,1,10.23-4.45l2.11-10.13,17.11-.3,2.46,10a41.67,41.67,0,0,1,10.38,4.08L443,66.49l12.31,11.89L450,87.22a41.79,41.79,0,0,1,4.45,10.24l10.13,2.1.3,17.11-10.05,2.47a41.82,41.82,0,0,1-4.08,10.38l5.66,8.65L444.5,150.48l-8.84-5.36a42.14,42.14,0,0,1-10.24,4.44l-2.1,10.13-17.11.3-2.47-10.05a41.82,41.82,0,0,1-10.38-4.08l-8.65,5.67L372.4,139.64l5.36-8.84a41.85,41.85,0,0,1-4.44-10.23l-10.13-2.11-.3-17.11,10.05-2.46A41.67,41.67,0,0,1,377,88.51l-5.67-8.65,11.89-12.31,8.84,5.36ZM401.2,95.7a18.36,18.36,0,1,0,26-.46A18.36,18.36,0,0,0,401.2,95.7Z" style="fill:#ebebeb"></path><path d="M487.06,52.81a24.64,24.64,0,0,1,6-2.6l1.23-5.91,10-.17L505.68,50a24.88,24.88,0,0,1,6.06,2.38l5-3.3L524,56l-3.12,5.16a24.61,24.61,0,0,1,2.59,6l5.91,1.23.17,10-5.86,1.44a24.26,24.26,0,0,1-2.38,6l3.31,5-6.94,7.18-5.16-3.13a24.31,24.31,0,0,1-6,2.6l-1.23,5.9-10,.18-1.43-5.86a24.72,24.72,0,0,1-6.06-2.38l-5,3.3-7.19-6.93,3.13-5.16a24.22,24.22,0,0,1-2.59-6l-5.91-1.23-.18-10L475.89,68a24.29,24.29,0,0,1,2.39-6l-3.31-5,6.93-7.18,5.16,3.13Zm5.32,13.29a10.71,10.71,0,1,0,15.15-.26A10.71,10.71,0,0,0,492.38,66.1Z" style="fill:#ebebeb"></path><path d="M636.47,206.05a32.72,32.72,0,0,1,7.95-3.46l1.63-7.86,13.29-.24,1.92,7.81a32.41,32.41,0,0,1,8.06,3.17l6.71-4.4,9.57,9.23-4.17,6.86a32.89,32.89,0,0,1,3.46,8l7.86,1.64L693,240l-7.8,1.91A32.11,32.11,0,0,1,682,250l4.4,6.72-9.23,9.56-6.87-4.16a32.24,32.24,0,0,1-7.94,3.45l-1.64,7.87-13.29.23-1.91-7.8a32.89,32.89,0,0,1-8.06-3.17l-6.72,4.4-9.56-9.23,4.16-6.87a32.31,32.31,0,0,1-3.45-7.95L614,241.43l-.23-13.29,7.8-1.92a33.21,33.21,0,0,1,3.17-8.06l-4.4-6.71,9.23-9.57,6.87,4.17Zm7.08,17.7a14.26,14.26,0,1,0,20.17-.35A14.26,14.26,0,0,0,643.55,223.75Z" style="fill:#ebebeb"></path></g><g id="freepik--Table--inject-14"><path d="M693,465.93c0,.14-146,.26-326,.26s-326-.12-326-.26,146-.26,326-.26S693,465.78,693,465.93Z" style="fill:#263238"></path></g><g id="freepik--Artboard--inject-14"><rect x="44.33" y="35.46" width="357.42" height="279.68" style="fill:#fff"></rect><rect x="44.4" y="35.46" width="358.76" height="23.26" style="fill:#263238"></rect><rect x="44.4" y="58.72" width="19.96" height="256.42" style="fill:#455a64"></rect><rect x="44.4" y="58.72" width="358.76" height="15.41" style="fill:#455a64"></rect><path d="M51.72,53.07a.49.49,0,0,1-.35-.14.5.5,0,0,1,0-.71L62.76,40.64a.49.49,0,0,1,.7,0,.5.5,0,0,1,0,.71L52.08,52.92A.51.51,0,0,1,51.72,53.07Z" style="fill:#fff"></path><path d="M63.21,53a.47.47,0,0,1-.35-.15L51.28,41.45a.5.5,0,0,1,.7-.72L63.56,52.12a.5.5,0,0,1,0,.71A.47.47,0,0,1,63.21,53Z" style="fill:#fff"></path><path d="M401.29,74.13c0,.14-78.77.26-175.92.26s-175.94-.12-175.94-.26,78.76-.26,175.94-.26S401.29,74,401.29,74.13Z" style="fill:#263238"></path><path d="M64.36,314.23c-.14,0-.26-56.57-.26-126.34s.12-126.34.26-126.34.26,56.55.26,126.34S64.5,314.23,64.36,314.23Z" style="fill:#263238"></path><path d="M84.86,73.87a35.94,35.94,0,0,1-.26-6.16,35.94,35.94,0,0,1,.26-6.16,37.2,37.2,0,0,1,.26,6.16A37.2,37.2,0,0,1,84.86,73.87Z" style="fill:#263238"></path><path d="M105.34,73.87a37.2,37.2,0,0,1-.26-6.16,37.2,37.2,0,0,1,.26-6.16,35.94,35.94,0,0,1,.26,6.16A35.94,35.94,0,0,1,105.34,73.87Z" style="fill:#263238"></path><path d="M125.83,73.87a35.94,35.94,0,0,1-.26-6.16,35.94,35.94,0,0,1,.26-6.16,37.2,37.2,0,0,1,.26,6.16A37.2,37.2,0,0,1,125.83,73.87Z" style="fill:#263238"></path><path d="M146.31,73.87a37.2,37.2,0,0,1-.26-6.16,37.2,37.2,0,0,1,.26-6.16,35.94,35.94,0,0,1,.26,6.16A35.94,35.94,0,0,1,146.31,73.87Z" style="fill:#263238"></path><path d="M166.8,73.87a35.94,35.94,0,0,1-.26-6.16,35.94,35.94,0,0,1,.26-6.16,37.2,37.2,0,0,1,.26,6.16A37.2,37.2,0,0,1,166.8,73.87Z" style="fill:#263238"></path><path d="M187.28,73.87a37.2,37.2,0,0,1-.26-6.16,37.2,37.2,0,0,1,.26-6.16,35.94,35.94,0,0,1,.26,6.16A35.94,35.94,0,0,1,187.28,73.87Z" style="fill:#263238"></path><path d="M207.77,73.87a35.94,35.94,0,0,1-.26-6.16,35.94,35.94,0,0,1,.26-6.16,37.2,37.2,0,0,1,.26,6.16A37.2,37.2,0,0,1,207.77,73.87Z" style="fill:#263238"></path><path d="M228.25,73.87a37.2,37.2,0,0,1-.26-6.16,37.2,37.2,0,0,1,.26-6.16,35.94,35.94,0,0,1,.26,6.16A35.94,35.94,0,0,1,228.25,73.87Z" style="fill:#263238"></path><path d="M248.74,73.87a35.94,35.94,0,0,1-.26-6.16,35.94,35.94,0,0,1,.26-6.16,37.2,37.2,0,0,1,.26,6.16A37.2,37.2,0,0,1,248.74,73.87Z" style="fill:#263238"></path><path d="M269.22,73.87a37.2,37.2,0,0,1-.26-6.16,37.2,37.2,0,0,1,.26-6.16,37.2,37.2,0,0,1,.26,6.16A37.2,37.2,0,0,1,269.22,73.87Z" style="fill:#263238"></path><path d="M289.71,73.87a35.94,35.94,0,0,1-.26-6.16,35.94,35.94,0,0,1,.26-6.16,37.2,37.2,0,0,1,.26,6.16A37.2,37.2,0,0,1,289.71,73.87Z" style="fill:#263238"></path><path d="M310.19,73.87a37.2,37.2,0,0,1-.26-6.16,37.2,37.2,0,0,1,.26-6.16,37.2,37.2,0,0,1,.26,6.16A37.2,37.2,0,0,1,310.19,73.87Z" style="fill:#263238"></path><path d="M330.68,73.87a35.29,35.29,0,0,1-.27-6.16,35.29,35.29,0,0,1,.27-6.16,37.2,37.2,0,0,1,.26,6.16A37.2,37.2,0,0,1,330.68,73.87Z" style="fill:#263238"></path><path d="M351.16,73.87a37.2,37.2,0,0,1-.26-6.16,37.2,37.2,0,0,1,.26-6.16,37.2,37.2,0,0,1,.26,6.16A37.2,37.2,0,0,1,351.16,73.87Z" style="fill:#263238"></path><path d="M371.64,73.87a37.2,37.2,0,0,1-.26-6.16,37.2,37.2,0,0,1,.26-6.16,35.29,35.29,0,0,1,.27,6.16A35.29,35.29,0,0,1,371.64,73.87Z" style="fill:#263238"></path><path d="M392.13,73.87a37.2,37.2,0,0,1-.26-6.16,37.2,37.2,0,0,1,.26-6.16,37.2,37.2,0,0,1,.26,6.16A37.2,37.2,0,0,1,392.13,73.87Z" style="fill:#263238"></path><path d="M64.36,91.56a52.57,52.57,0,0,1-7.46.26,52.66,52.66,0,0,1-7.47-.26,54.51,54.51,0,0,1,7.47-.26A54.42,54.42,0,0,1,64.36,91.56Z" style="fill:#263238"></path><path d="M64.36,110.44a52.57,52.57,0,0,1-7.46.26,52.66,52.66,0,0,1-7.47-.26,54.51,54.51,0,0,1,7.47-.26A54.42,54.42,0,0,1,64.36,110.44Z" style="fill:#263238"></path><path d="M64.36,129.32a54.42,54.42,0,0,1-7.46.26,54.51,54.51,0,0,1-7.47-.26,54.51,54.51,0,0,1,7.47-.26A54.42,54.42,0,0,1,64.36,129.32Z" style="fill:#263238"></path><path d="M64.36,148.2a54.42,54.42,0,0,1-7.46.26,54.51,54.51,0,0,1-7.47-.26,52.66,52.66,0,0,1,7.47-.26A52.57,52.57,0,0,1,64.36,148.2Z" style="fill:#263238"></path><path d="M64.36,167.07a52.57,52.57,0,0,1-7.46.26,52.66,52.66,0,0,1-7.47-.26,54.51,54.51,0,0,1,7.47-.26A54.42,54.42,0,0,1,64.36,167.07Z" style="fill:#263238"></path><path d="M64.36,186a54.42,54.42,0,0,1-7.46.26,54.51,54.51,0,0,1-7.47-.26,54.51,54.51,0,0,1,7.47-.26A54.42,54.42,0,0,1,64.36,186Z" style="fill:#263238"></path><path d="M64.36,204.83a54.42,54.42,0,0,1-7.46.26,54.51,54.51,0,0,1-7.47-.26,52.66,52.66,0,0,1,7.47-.26A52.57,52.57,0,0,1,64.36,204.83Z" style="fill:#263238"></path><path d="M64.36,223.71a54.42,54.42,0,0,1-7.46.26,54.51,54.51,0,0,1-7.47-.26,52.66,52.66,0,0,1,7.47-.26A52.57,52.57,0,0,1,64.36,223.71Z" style="fill:#263238"></path><path d="M64.36,242.58a52.57,52.57,0,0,1-7.46.26,52.66,52.66,0,0,1-7.47-.26,54.51,54.51,0,0,1,7.47-.26A54.42,54.42,0,0,1,64.36,242.58Z" style="fill:#263238"></path><path d="M64.36,261.46a54.42,54.42,0,0,1-7.46.26,54.51,54.51,0,0,1-7.47-.26,54.51,54.51,0,0,1,7.47-.26A54.42,54.42,0,0,1,64.36,261.46Z" style="fill:#263238"></path><path d="M64.36,280.34a54.42,54.42,0,0,1-7.46.26,54.51,54.51,0,0,1-7.47-.26,52.66,52.66,0,0,1,7.47-.26A52.57,52.57,0,0,1,64.36,280.34Z" style="fill:#263238"></path><path d="M64.36,299.21a51.61,51.61,0,0,1-7.46.27,51.7,51.7,0,0,1-7.47-.27A54.51,54.51,0,0,1,56.9,299,54.42,54.42,0,0,1,64.36,299.21Z" style="fill:#263238"></path><path d="M278.73,98.5c0,.1-.05.22-.1.44s-.15.76-.3,1.36a35.4,35.4,0,0,1-1.76,5,35.89,35.89,0,0,1-12.74,15.34l-.11-.28,9.67-1.46.27,0-.07.26c-1.23,4.42-2.49,9.38-5.17,14.14a23.35,23.35,0,0,1-5.31,6.49,16.66,16.66,0,0,1-8,3.81v-.45l7.93.7.24,0,0,.24A150.62,150.62,0,0,1,256.89,173a236.43,236.43,0,0,1-12.14,30.23c-1.68,3.58-3.45,7.07-5.2,10.49l-.6,1.18.11-1.32c1.75-20.16,3.91-39.11,2.62-55.65v-.08A160.74,160.74,0,0,1,251.19,130a96.11,96.11,0,0,1,5.86-10.82,74.09,74.09,0,0,1,6.24-8.39,54,54,0,0,1,10.94-9.72c.7-.48,1.35-.86,1.9-1.19s1-.6,1.43-.81l1.17-.6-1.16.68c-.74.41-1.87,1.09-3.26,2A54.7,54.7,0,0,0,263.49,111a72.65,72.65,0,0,0-6.16,8.38,96.83,96.83,0,0,0-5.8,10.81A161,161,0,0,0,242.12,158v-.08c1.33,16.61-.81,35.58-2.55,55.74l-.49-.15c1.75-3.42,3.51-6.9,5.19-10.47,9.7-20.21,16.47-40.59,18.49-59l.21.26-7.93-.71-1.84-.17,1.82-.28a16.2,16.2,0,0,0,7.8-3.68,23.1,23.1,0,0,0,5.24-6.37c2.66-4.68,3.93-9.61,5.18-14l.2.22-9.69,1.42-.67.1.57-.38A35.75,35.75,0,0,0,272,112.6a36.31,36.31,0,0,0,4.39-7.32,38.53,38.53,0,0,0,1.83-5C278.53,99.23,278.66,98.75,278.73,98.5Z" style="fill:#263238"></path><path d="M237.16,224.84a6.35,6.35,0,0,0,.21-.66c.13-.44.27-1.11.45-2,.33-1.77.72-4.39,1.13-7.79.82-6.81,1.71-16.71,2.59-29s1.18-27.21-2-43.43a109.14,109.14,0,0,0-7.9-24.67,79.28,79.28,0,0,0-6.75-12A105.1,105.1,0,0,0,216.17,94l.45-.15c-.54,4.84-1.06,10-1.49,15.2-.4,5-.83,10-.74,14.88a9.46,9.46,0,0,0,2.5,6.52,19.88,19.88,0,0,0,5.56,4.36l1.78,1-2-.49-9.55-2.39.31-.24q-.1,4.82-.31,9.5c-.16,3.12-.31,6.19-.69,9.21,0,.38-.11.76-.18,1.14a3,3,0,0,0,0,1,5.55,5.55,0,0,0,.82,2,18.21,18.21,0,0,0,2.84,3.3,52.2,52.2,0,0,0,6.7,5.31l.61.42H211.58l.22-.22A74.63,74.63,0,0,0,217.39,191a127,127,0,0,0,9.43,18.81c3,5,5.65,8.73,7.48,11.25.91,1.26,1.63,2.2,2.12,2.84l.55.72.19.25s-.07-.07-.2-.23l-.59-.7c-.5-.62-1.25-1.56-2.18-2.81-1.86-2.49-4.53-6.21-7.59-11.19a126,126,0,0,1-9.53-18.81,74.57,74.57,0,0,1-5.7-26.8v-.21H222l-.12.41a53.06,53.06,0,0,1-6.78-5.35,19,19,0,0,1-2.91-3.39,5.94,5.94,0,0,1-.89-2.15,3.43,3.43,0,0,1,0-1.2c.06-.36.14-.73.18-1.1.37-3,.51-6.06.66-9.17s.24-6.28.31-9.49v-.31l.31.07,9.56,2.39-.18.47a20,20,0,0,1-5.72-4.48,11.77,11.77,0,0,1-2-3.15,11.05,11.05,0,0,1-.52-1.81c0-.62-.14-1.25-.14-1.87-.06-2.47,0-5,.19-7.44s.33-5,.55-7.5c.43-5.22,1-10.37,1.49-15.22l.07-.57.38.43A106,106,0,0,1,225.31,105a80.72,80.72,0,0,1,6.78,12.08,110,110,0,0,1,7.9,24.78c3.16,16.28,2.81,31.24,1.9,43.54s-1.87,22.24-2.75,29c-.44,3.4-.86,6-1.23,7.79a17.11,17.11,0,0,1-.49,2A2.23,2.23,0,0,1,237.16,224.84Z" style="fill:#263238"></path><path d="M251.62,228.36a2.17,2.17,0,0,1,0-.58c0-.38,0-.95.09-1.69.12-1.49.36-3.69.73-6.51.74-5.64,2-13.81,3.67-23.94s4.23-22.29,10.22-34.73c1.51-3.09,3.25-6.17,5.15-9.24l2.92-4.62c1-1.55,1.87-3.16,2.91-4.77a43.61,43.61,0,0,1,7.74-8.53,72.59,72.59,0,0,1,9.62-7l.45-.28L295,127c-.53,4.08-1.13,8.39-1.81,12.75-.67,4.13-1.3,8.21-2.36,12.18a11,11,0,0,1-.49,1.47l-.35.71c-.13.23-.29.44-.43.66a10.06,10.06,0,0,1-2.22,2.15,17,17,0,0,1-5.51,2.49l-.06-.51,8.21,0h.32l-.07.31c-1.13,5.22-2.26,10.32-2.9,15.29,0,.31-.05.62-.07.93a2.91,2.91,0,0,1-.2,1,5.11,5.11,0,0,1-1.15,1.58,15.8,15.8,0,0,1-3,2.17,43.65,43.65,0,0,1-6.55,3l0-.43,8.46,2.07.21,0L285,185a60.23,60.23,0,0,1-10,20.47,102.05,102.05,0,0,1-11.62,13.14c-3.51,3.36-6.46,5.78-8.49,7.39-1,.8-1.81,1.39-2.35,1.79l-.62.44-.22.13.21-.17.59-.46c.53-.4,1.31-1,2.31-1.83,2-1.64,4.92-4.08,8.4-7.47a103.23,103.23,0,0,0,11.51-13.17,60.14,60.14,0,0,0,9.89-20.36l.16.26-8.47-2-.71-.18.69-.26a43.63,43.63,0,0,0,6.47-3,16.1,16.1,0,0,0,2.94-2.11,4.57,4.57,0,0,0,1-1.42,2.23,2.23,0,0,0,.17-.83c0-.32,0-.64.07-1,.64-5,1.77-10.11,2.89-15.35l.24.31-8.2,0-2,0,2-.52a16.39,16.39,0,0,0,5.32-2.41,9.45,9.45,0,0,0,2.1-2,7.79,7.79,0,0,0,1.2-2.67c1-3.91,1.66-8,2.33-12.12.68-4.35,1.28-8.66,1.81-12.73l.39.26a70.28,70.28,0,0,0-9.54,7,43.43,43.43,0,0,0-7.67,8.41c-1,1.56-1.91,3.21-2.91,4.76l-2.92,4.62a101.66,101.66,0,0,0-5.14,9.19c-6,12.35-8.53,24.51-10.3,34.58s-3,18.27-3.82,23.91c-.4,2.81-.67,5-.82,6.48S251.62,228.36,251.62,228.36Z" style="fill:#263238"></path><path d="M228.83,237.48c0-.29-.06-.8-.13-1.89-.07-.62-.17-1.39-.28-2.28s-.31-1.94-.58-3.1a115.07,115.07,0,0,0-6.25-19.13c-.8-2-1.69-4-2.66-6.15a68.47,68.47,0,0,0-3.31-6.48,63,63,0,0,0-4.41-6.43c-1.63-2.14-3.33-4.33-5.16-6.51a72.85,72.85,0,0,0-12.87-12.35,41.35,41.35,0,0,0-17.46-7.68l.27-.39a26.67,26.67,0,0,0,5.26,6.42,27,27,0,0,0,10.56,5.84l1.1.31-1.13.19-7.31,1.23.17-.39c2.36,3.59,4.73,7.11,7.89,9.66s7.06,4,10.78,3.42l1.93-.31-1.8.76-5.55,2.36.11-.3a121.66,121.66,0,0,0,11.35,18.49c3.78,5.27,7.27,9.73,10.17,13.38s5.25,6.46,6.86,8.38l1.83,2.19c.42.5.6.75.62.76a7.78,7.78,0,0,1-.67-.71l-1.89-2.15c-1.64-1.89-4-4.69-7-8.31s-6.45-8.07-10.26-13.32a120.44,120.44,0,0,1-11.46-18.52l-.1-.21.22-.09,5.54-2.38.14.45c-3.9.64-8-.92-11.17-3.5s-5.64-6.18-8-9.77l-.21-.33.38-.06,7.31-1.24,0,.5a27.52,27.52,0,0,1-16.13-12.49l-.28-.48.54.09a41.94,41.94,0,0,1,17.68,7.79,73.45,73.45,0,0,1,12.93,12.46c1.83,2.19,3.53,4.39,5.15,6.54a61.59,61.59,0,0,1,4.42,6.49,65.63,65.63,0,0,1,3.3,6.53q1.44,3.19,2.64,6.18A111.72,111.72,0,0,1,228,230.17c.26,1.17.39,2.21.54,3.12s.17,1.67.23,2.29C228.82,236.68,228.82,237.19,228.83,237.48Z" style="fill:#263238"></path><polygon points="215 249 215 259.57 219.94 259.57 225.54 295.13 256.86 295.13 262.08 259.57 266.82 259.57 266.82 249 215 249" style="fill:#3A548A"></polygon><path d="M215,249s.07,0,.23,0h.7l2.78,0,10.56-.06,37.55-.12h.24V249c0,3.35,0,6.9,0,10.57v.24h-5l.25-.22c-1.17,8-2.43,16.62-3.74,25.54-.5,3.39-1,6.74-1.48,10l0,.23h-.22l-31.32,0h-.2l0-.2c-2.26-14.61-4.17-26.88-5.51-35.57l.14.12-4.94,0h-.12v-.12c0-3.44.05-6.09.07-7.9q0-1.3,0-2c0-.45,0-.66,0-.66s0,.24,0,.7,0,1.16,0,2c0,1.79,0,4.42.07,7.83l-.12-.12,4.94,0h.12l0,.12c1.39,8.68,3.35,20.94,5.69,35.54l-.23-.2,31.32,0-.26.22c.49-3.29,1-6.64,1.47-10,1.32-8.92,2.59-17.54,3.77-25.53l0-.21h4.95l-.24.25c0-3.67,0-7.22,0-10.57l.23.23-37.4-.12-10.61-.06L216,249h-1Z" style="fill:#263238"></path><path d="M387.39,295.13c0,.14-68.17.26-152.24.26s-152.25-.12-152.25-.26,68.15-.26,152.25-.26S387.39,295,387.39,295.13Z" style="fill:#263238"></path><path d="M276.65,159.14a.78.78,0,0,1-.06.24c-.06.18-.14.4-.23.68-.22.63-.52,1.5-.91,2.6-.8,2.26-2,5.51-3.51,9.52-3,8-7.32,19-11.77,31.31-2.21,6.15-4.19,12-5.89,17.44s-3.07,10.31-4.13,14.45c-.56,2.07-1,4-1.38,5.61s-.71,3.08-1,4.25-.44,2-.59,2.7c-.06.28-.12.51-.16.69a.75.75,0,0,1-.08.24.94.94,0,0,1,0-.25c0-.19.07-.42.12-.7.12-.67.29-1.57.5-2.72s.49-2.62.87-4.27.76-3.56,1.31-5.64c1-4.16,2.37-9.08,4-14.5s3.64-11.32,5.85-17.47c4.45-12.3,8.83-23.29,11.92-31.27l3.66-9.46c.43-1.08.76-1.94,1-2.57l.27-.66A.7.7,0,0,1,276.65,159.14Z" style="fill:#263238"></path><path d="M230.75,151.84c.14,0,2.12,21.68,4.41,48.45s4.05,48.48,3.9,48.49-2.12-21.68-4.41-48.45S230.6,151.86,230.75,151.84Z" style="fill:#263238"></path><path d="M231.87,249.21a10.7,10.7,0,0,1-.52-1.6c-.31-1-.75-2.54-1.33-4.39-1.14-3.7-2.86-8.77-5.09-14.24s-4.56-10.29-6.33-13.74c-.88-1.72-1.61-3.11-2.13-4.06a10.78,10.78,0,0,1-.74-1.51,9.64,9.64,0,0,1,.92,1.41c.57.92,1.35,2.29,2.28,4a140.08,140.08,0,0,1,11.44,28c.53,1.87.93,3.39,1.17,4.45A9.06,9.06,0,0,1,231.87,249.21Z" style="fill:#263238"></path><path d="M266.68,259.35c0,.14-11.65.26-26,.26s-26-.12-26-.26,11.64-.26,26-.26S266.68,259.2,266.68,259.35Z" style="fill:#263238"></path><polygon points="273.19 247.55 283.59 271.14 287.22 260.76 296.12 257.5 273.19 247.55" style="fill:#263238"></polygon><rect x="293.05" y="265.53" width="13.07" height="13.07" style="fill:#fff"></rect><path d="M306.11,278.6s0-.37-.05-1,0-1.58-.06-2.68c0-2.35-.07-5.57-.11-9.4l.22.22-13.06,0c-.06,0,.49-.49.26-.26h0v6.88c0,2.19,0,4.26,0,6.17l-.22-.23,9.4.11,2.68.06a6.77,6.77,0,0,1,1,.06,7.79,7.79,0,0,1-.89,0l-2.63.06-9.54.11h-.23v-.22c0-1.91,0-4,0-6.17v-6.88h0l.26-.26,13.06,0h.23v.23c0,3.89-.09,7.16-.12,9.54,0,1.08,0,2-.06,2.63A4.61,4.61,0,0,1,306.11,278.6Z" style="fill:#263238"></path><path d="M299.58,277.38a54.56,54.56,0,0,1,0-10.64,54.56,54.56,0,0,1,0,10.64Z" style="fill:#263238"></path><path d="M304.9,272.06a54.56,54.56,0,0,1-10.64,0,54.56,54.56,0,0,1,10.64,0Z" style="fill:#263238"></path><rect x="388.8" y="74.13" width="14.36" height="241.01" style="fill:#455a64"></rect><rect x="388.8" y="102.47" width="14.36" height="49.37" rx="7.18" style="fill:#263238"></rect><path d="M147.33,154.56s0-.09,0-.25,0-.41,0-.71c0-.64,0-1.55,0-2.72,0-2.4,0-5.88-.06-10.3,0-8.85-.07-21.46-.11-36.57l.22.22-50.54,0c-.07,0,.49-.49.25-.25h0v13.61c0,4.46,0,8.83,0,13.07,0,8.49,0,16.5,0,23.85l-.23-.23,36.58.12,10.29.06,2.73,0h.71l.24,0h-.9l-2.69,0-10.24.06-36.72.11h-.22v-.22c0-7.35,0-15.36,0-23.85,0-4.24,0-8.61,0-13.07V104h0c-.23.22.32-.33.27-.27l50.54,0h.23V104c-.05,15.17-.09,27.83-.12,36.71,0,4.4,0,7.86-.06,10.25,0,1.16,0,2.05,0,2.68,0,.29,0,.51,0,.68A.94.94,0,0,1,147.33,154.56Z" style="fill:#263238"></path><path d="M102.56,109.78h.69l2.07,0,7.89-.06,28.35-.11h.22v.22c0,11.34,0,24.72,0,39,.05-.06-.5.49-.27.26H121l-18.39,0h-.23v-.23c0-11.71.09-21.47.12-28.34,0-3.38,0-6,.06-7.9,0-.88,0-1.57,0-2.07,0-.21,0-.38,0-.52s0-.17,0-.17a1.78,1.78,0,0,1,0,.2c0,.14,0,.32,0,.54,0,.51,0,1.21,0,2.11,0,1.87,0,4.55.06,8,0,6.84.07,16.55.11,28.2l-.22-.23,18.39,0h20.6l-.25.26c0-14.28,0-27.66,0-39l.23.23-28.2-.12-8-.06-2.11,0h-.55A.76.76,0,0,1,102.56,109.78Z" style="fill:#263238"></path><path d="M96.72,104a16.81,16.81,0,0,1,3.13,2.71,16.62,16.62,0,0,1,2.77,3.07,15.63,15.63,0,0,1-3.14-2.7A17,17,0,0,1,96.72,104Z" style="fill:#263238"></path><path d="M147.15,104.18a15.4,15.4,0,0,1-2.49,3.09,16,16,0,0,1-2.88,2.75,15,15,0,0,1,2.49-3.1A15.29,15.29,0,0,1,147.15,104.18Z" style="fill:#263238"></path><path d="M146.9,154.66a25.39,25.39,0,0,1-2.45-2.84A24.48,24.48,0,0,1,142,149a14.37,14.37,0,0,1,4.86,5.7Z" style="fill:#263238"></path><path d="M102.18,148.72a15.9,15.9,0,0,1-2.62,3.06,15.64,15.64,0,0,1-3,2.7,15.9,15.9,0,0,1,2.62-3.06A16,16,0,0,1,102.18,148.72Z" style="fill:#263238"></path><path d="M111.07,117.57a1.93,1.93,0,0,1,.39,0l1.19,0,4.56-.06,16.44-.12h.22v.23c0,6.57,0,14.31,0,22.57l-.27.26H121.72l-10.65,0h-.22v-.23c.05-6.77.09-12.42.11-16.44,0-1.92.05-3.46.06-4.56,0-.49,0-.88,0-1.18s0-.4,0-.39a2.64,2.64,0,0,1,0,.44q0,.46,0,1.23c0,1.11,0,2.66.05,4.61,0,4,.07,9.58.12,16.29l-.23-.22,10.65,0h11.92c.24-.23-.31.32-.25.26,0-8.26,0-16,0-22.57l.23.22-16.29-.11-4.62-.06-1.23,0Z" style="fill:#263238"></path><path d="M403.16,315.35c0,.14-80.08.26-178.84.26s-178.85-.12-178.85-.26,80.06-.26,178.85-.26S403.16,315.2,403.16,315.35Z" style="fill:#263238"></path></g><g id="freepik--tools-2--inject-14"><rect x="326.46" y="168.27" width="131.34" height="77.14" style="fill:#455a64"></rect><path d="M457.8,245.41s0-.48,0-1.4,0-2.27,0-4c0-3.55,0-8.76-.05-15.45,0-13.36-.06-32.62-.1-56.25l.2.2-131.33.06h0l.26-.26c0,27.31,0,53.39,0,77.14l-.24-.25,94.48.12,27.12.07,7.23,0h1.87l.64,0h-.62l-1.84,0-7.18,0-27.06.06-94.64.12h-.24v-.24c0-23.75,0-49.83,0-77.14V168h.27l131.33.05h.2v.21c0,23.68-.08,43-.11,56.38,0,6.66,0,11.86-.05,15.4,0,1.75,0,3.09,0,4S457.8,245.41,457.8,245.41Z" style="fill:#263238"></path><path d="M352.22,204.28H339.38V191.45h12.84Zm-11.84-1h10.84V192.45H340.38Z" style="fill:#263238"></path><rect x="370.48" y="168.27" width="87.32" height="16.76" style="fill:#263238"></rect><path d="M365.41,176.39c0,.15-7,.26-15.68.26s-15.69-.11-15.69-.26,7-.26,15.69-.26S365.41,176.25,365.41,176.39Z" style="fill:#263238"></path><rect x="334.52" y="186.58" width="11.83" height="11.83" style="fill:#3A548A"></rect><rect x="365.2" y="199.06" width="53.85" height="4.57" style="fill:#3A548A"></rect><path d="M366.22,204.23l-1.74,2.56a.48.48,0,0,0,.4.75h3.43a.48.48,0,0,0,.4-.75L367,204.23A.48.48,0,0,0,366.22,204.23Z" style="fill:#fff"></path><rect x="365.2" y="212.67" width="53.85" height="4.57" style="fill:#ebebeb"></rect><path d="M415.18,217.83l-1.74,2.57a.48.48,0,0,0,.4.75h3.43a.48.48,0,0,0,.4-.75L416,217.84A.48.48,0,0,0,415.18,217.83Z" style="fill:#fff"></path><rect x="365.2" y="227.37" width="53.85" height="4.57" style="fill:#263238"></rect><path d="M379.05,232.54l-1.74,2.56a.48.48,0,0,0,.4.75h3.43a.48.48,0,0,0,.4-.75l-1.69-2.56A.48.48,0,0,0,379.05,232.54Z" style="fill:#fff"></path><rect x="425.95" y="198.27" width="20.92" height="6.15" style="fill:#263238"></rect><rect x="425.95" y="211.88" width="20.92" height="6.15" style="fill:#263238"></rect><rect x="425.95" y="226.58" width="20.92" height="6.15" style="fill:#263238"></rect></g><g id="freepik--tools-1--inject-14"><rect x="80.88" y="336.95" width="121.25" height="66.15" style="fill:#455a64"></rect><path d="M202.14,403.1s0-.41,0-1.19,0-2,0-3.46c0-3,0-7.49-.05-13.22,0-11.45-.06-28-.1-48.28l.2.2-121.25.06h0l.26-.26c0,23.38,0,45.76,0,66.15l-.25-.24L168,403l25.08.07,6.69,0h2.33l-.57,0h-1.7l-6.65,0-25,.07-87.33.12h-.24v-.25c0-20.39,0-42.77,0-66.15v-.26h.27l121.25.07h.19V337c0,20.37-.08,36.92-.1,48.4,0,5.71,0,10.15,0,13.18,0,1.49,0,2.64,0,3.42S202.14,403.1,202.14,403.1Z" style="fill:#263238"></path><path d="M107.55,370.24H95.63V358.32h11.92Zm-10.92-1h9.92v-9.92H96.63Z" style="fill:#263238"></path><path d="M103.72,393.38a7.72,7.72,0,0,1,0-1q0-1-.06-2.61c0-2.29-.07-5.43-.12-9.16l.23.23-12.73,0,.26-.26h0v1.72c0,.58,0,1.14,0,1.71v3.29c0,2.13,0,4.15,0,6l-.22-.22,9.16.11,2.61.06c.61,0,.94,0,1,.05a4.53,4.53,0,0,1-.87.06l-2.56.05-9.3.12h-.23v-.23c0-1.85,0-3.87,0-6,0-1.07,0-2.17,0-3.29v-3.43h0l.26-.26,12.73,0H104v.22c0,3.79-.08,7-.11,9.3,0,1.05,0,1.9-.06,2.56A5.26,5.26,0,0,1,103.72,393.38Z" style="fill:#263238"></path><rect x="121.52" y="336.95" width="80.62" height="15.47" style="fill:#263238"></rect><path d="M116.84,344.46c0,.14-6.48.26-14.48.26s-14.48-.12-14.48-.26,6.49-.27,14.48-.27S116.84,344.31,116.84,344.46Z" style="fill:#263238"></path><rect x="91.18" y="353.86" width="10.92" height="10.92" style="fill:#3A548A"></rect><rect x="90.99" y="380.65" width="12.73" height="12.73" style="fill:#3A548A"></rect><polygon points="103.72 388.83 103.72 393.38 99.11 393.38 103.72 388.83" style="fill:#fff"></polygon><path d="M118.61,393.38s0-.35,0-1,0-1.54-.06-2.61c0-2.29-.06-5.43-.11-9.16l.22.23-12.73,0,.26-.26h0v3.43c0,1.12,0,2.22,0,3.29,0,2.13,0,4.15,0,6l-.23-.22,9.16.11,2.61.06c.61,0,.95,0,1,.05a4.4,4.4,0,0,1-.87.06l-2.56.05-9.3.12h-.22v-.23c0-1.85,0-3.87,0-6,0-1.07,0-2.17,0-3.29v-3.43h0l.26-.26,12.73,0h.23v.22c0,3.79-.09,7-.12,9.3,0,1.05,0,1.9,0,2.56A4.4,4.4,0,0,1,118.61,393.38Z" style="fill:#263238"></path><rect x="105.88" y="380.65" width="12.73" height="12.73" style="fill:#eb996e"></rect><polygon points="118.61 388.83 118.61 393.38 114.01 393.38 118.61 388.83" style="fill:#fff"></polygon><path d="M133.51,393.38a5.86,5.86,0,0,1,0-1q0-1-.06-2.61c0-2.29-.07-5.43-.12-9.16l.23.23-12.73,0,.26-.26h0v6.72c0,2.13,0,4.15,0,6l-.22-.22,9.15.11,2.62.06c.61,0,.94,0,1,.05a4.66,4.66,0,0,1-.87.06l-2.56.05-9.3.12h-.23v-.23c0-1.85,0-3.87,0-6v-6.72h0c-.23.23.32-.32.27-.26l12.73,0h.23v.22c0,3.79-.08,7-.11,9.3,0,1.05-.05,1.9-.06,2.56A7.34,7.34,0,0,1,133.51,393.38Z" style="fill:#263238"></path><rect x="120.78" y="380.65" width="12.73" height="12.73" style="fill:#ffbe9d"></rect><polygon points="133.51 388.83 133.51 393.38 128.9 393.38 133.51 388.83" style="fill:#fff"></polygon><path d="M148.4,393.38a7.72,7.72,0,0,1-.05-1q0-1-.06-2.61c0-2.29-.07-5.43-.11-9.16l.22.23-12.73,0,.26-.26h0v3.43c0,1.12,0,2.22,0,3.29,0,2.13,0,4.15,0,6l-.22-.22,9.16.11,2.61.06c.61,0,.94,0,1,.05a4.4,4.4,0,0,1-.87.06l-2.56.05-9.3.12h-.23v-.23c0-1.85,0-3.87,0-6,0-1.07,0-2.17,0-3.29v-3.43h0l.26-.26,12.73,0h.23v.22c0,3.79-.09,7-.12,9.3,0,1.05,0,1.9-.06,2.56A4.1,4.1,0,0,1,148.4,393.38Z" style="fill:#263238"></path><rect x="135.67" y="380.65" width="12.73" height="12.73" style="fill:#263238"></rect><polygon points="148.4 388.83 148.4 393.38 143.8 393.38 148.4 388.83" style="fill:#fff"></polygon><path d="M163.3,393.38a6.45,6.45,0,0,1-.06-1c0-.67,0-1.54-.05-2.61,0-2.29-.07-5.43-.12-9.16l.23.23-12.74,0c-.05.06.5-.49.26-.26h0v3.43c0,1.12,0,2.22,0,3.29,0,2.13,0,4.15,0,6l-.23-.22,9.16.11,2.61.06c.61,0,.95,0,1,.05a4.66,4.66,0,0,1-.87.06l-2.56.05-9.31.12h-.22v-.23c0-1.85,0-3.87,0-6v-6.72h0l.26-.26,12.74,0h.22v.22c-.05,3.79-.08,7-.11,9.3,0,1.05,0,1.9-.06,2.56A7.34,7.34,0,0,1,163.3,393.38Z" style="fill:#263238"></path><rect x="150.56" y="380.65" width="12.73" height="12.73" style="fill:#ebebeb"></rect><polygon points="163.3 388.83 163.3 393.38 158.69 393.38 163.3 388.83" style="fill:#fff"></polygon><path d="M178.19,393.38a7.72,7.72,0,0,1-.05-1q0-1-.06-2.61c0-2.29-.07-5.43-.11-9.16l.22.23-12.73,0,.26-.26h0v3.43c0,1.12,0,2.22,0,3.29,0,2.13,0,4.15,0,6l-.22-.22,9.16.11,2.61.06c.61,0,.94,0,1,.05a4.4,4.4,0,0,1-.87.06l-2.56.05-9.3.12h-.23v-.23c0-1.85,0-3.87,0-6,0-1.07,0-2.17,0-3.29v-3.43h0c-.24.23.31-.32.26-.26l12.73,0h.23v.22c0,3.79-.09,7-.12,9.3,0,1.05,0,1.9-.06,2.56A5.26,5.26,0,0,1,178.19,393.38Z" style="fill:#263238"></path><rect x="165.46" y="380.65" width="12.73" height="12.73" style="fill:#f5f5f5"></rect><polygon points="178.19 388.83 178.19 393.38 173.59 393.38 178.19 388.83" style="fill:#fff"></polygon><path d="M193.08,393.38s0-.35-.05-1,0-1.54-.06-2.61c0-2.29-.06-5.43-.11-9.16l.22.23-12.73,0,.26-.26h0v3.43c0,1.12,0,2.22,0,3.29,0,2.13,0,4.15,0,6l-.23-.22,9.16.11,2.61.06c.61,0,.95,0,1,.05a4.34,4.34,0,0,1-.86.06l-2.57.05-9.3.12h-.22v-.23c0-1.85,0-3.87,0-6,0-1.07,0-2.17,0-3.29v-3.43h0l.26-.26,12.73,0h.23v.22c-.05,3.79-.09,7-.12,9.3,0,1.05,0,1.9-.05,2.56A4.4,4.4,0,0,1,193.08,393.38Z" style="fill:#263238"></path><rect x="180.35" y="380.65" width="12.73" height="12.73" style="fill:#fafafa"></rect><polygon points="193.08 388.83 193.08 393.38 188.48 393.38 193.08 388.83" style="fill:#fff"></polygon><rect x="185.13" y="358.15" width="2.8" height="2.8" style="fill:#263238"></rect><rect x="189.02" y="358.15" width="2.8" height="2.8" style="fill:#263238"></rect><rect x="185.13" y="361.8" width="2.8" height="2.8" style="fill:#263238"></rect><rect x="189.02" y="361.8" width="2.8" height="2.8" style="fill:#263238"></rect></g><g id="freepik--Character--inject-14"><path d="M411.7,422H399.53s-27.47-9.92-33.12-9c-5.08.86-23.71,13.23-27.36,15.68a2.29,2.29,0,0,0-.88,1.13h0a4,4,0,0,0,2.22,5.07l.39.16-.17.55a6.6,6.6,0,0,0-.28,2.23,2.69,2.69,0,0,0,5,1.16l-.7,1.24a3.05,3.05,0,0,0-.39,1.67l.06,1.14a3.07,3.07,0,0,0,2.1,2.73h0a3,3,0,0,0,3.2-.84c2.36-2.6,7.75-6.39,11.2-7,3.07-.51,7.9-2,11-2a3.84,3.84,0,0,1,3.55,2.44h0c-2.05.15-12.62,5-17.67,7.62a5.43,5.43,0,0,0-2.94,4.07c-.18,1.58.62,3.24,3.75,2.5,6.71-1.56,15.08-4.48,15.08-4.48s6.23-1.78,10.26,1.06c5.68,4,8.28,5.48,13.16,3.86a41.84,41.84,0,0,0,8.47-3.93l9.6-1S424.12,425.5,411.7,422Z" style="fill:#ffbe9d"></path><path d="M409.11,443.37a3.65,3.65,0,0,1-.65.47,4.42,4.42,0,0,1-.84.5,7.71,7.71,0,0,1-1.21.55,13.25,13.25,0,0,1-8.37.28,13,13,0,0,1-5.14-2.79l-.6-.55-.54-.61a11.23,11.23,0,0,1-1-1.35c-.61-1-1.06-2-1.73-2.95a4.22,4.22,0,0,0-2.74-1.9,13.77,13.77,0,0,0-3.68,0,21.77,21.77,0,0,1-7.93-.78,22.88,22.88,0,0,1-6.82-3.26,23.18,23.18,0,0,1-2.78-2.31,1.74,1.74,0,0,1-.46-1.84,1.76,1.76,0,0,1,1.46-1.17h0l17.85-.75,5.12-.17,1.36,0a1.7,1.7,0,0,1,.47,0l-.47.06-1.35.1-5.11.31-17.84.93h0a1.26,1.26,0,0,0-.7,2.18,23,23,0,0,0,2.72,2.24,22.45,22.45,0,0,0,6.67,3.18,21.47,21.47,0,0,0,7.75.77,13.58,13.58,0,0,1,3.82,0,4.52,4.52,0,0,1,1.76.75,5.64,5.64,0,0,1,1.28,1.35c.69,1,1.14,2.07,1.72,3a11.42,11.42,0,0,0,1,1.3l.52.6.57.52a12.65,12.65,0,0,0,5,2.77,13.28,13.28,0,0,0,8.19-.12A20.14,20.14,0,0,0,409.11,443.37Z" style="fill:#eb996e"></path><path d="M546.49,135.09a10.87,10.87,0,0,0-11.7-4.62,14.89,14.89,0,0,0-18.24,1.8,13.24,13.24,0,0,0-19,12.38A11.05,11.05,0,0,0,489.37,164a10.62,10.62,0,0,0,6.1,20.24l50-36.6A10.88,10.88,0,0,0,546.49,135.09Z" style="fill:#263238"></path><path d="M494.05,185.84a45.1,45.1,0,0,1,41.51-44.91l2.33-.18c25.21-.54,39.75,20.57,39.59,45.79l3,83.87-2.61,10.78-33.94,28-17.05-15.1L522,269.41s-24.43-1.83-26.65-25.93C494.29,231.84,494,207.7,494.05,185.84Z" style="fill:#ffbe9d"></path><path d="M521.81,269.39s15.48-.3,30.87-11.77c0,0-6,17.95-30.29,17.7Z" style="fill:#eb996e"></path><path d="M502.83,207.62a3.45,3.45,0,0,0,3.59,3.21,3.3,3.3,0,0,0,3.31-3.39,3.46,3.46,0,0,0-3.6-3.21A3.3,3.3,0,0,0,502.83,207.62Z" style="fill:#263238"></path><path d="M500,198.48c.46.41,2.92-1.73,6.62-2s6.58,1.36,6.94.87c.18-.22-.32-1-1.57-1.76a9.47,9.47,0,0,0-5.6-1.25,9.13,9.13,0,0,0-5.23,2.16C500.1,197.45,499.78,198.29,500,198.48Z" style="fill:#263238"></path><path d="M534.72,206.67a3.45,3.45,0,0,0,3.6,3.21,3.3,3.3,0,0,0,3.31-3.38,3.47,3.47,0,0,0-3.6-3.22A3.31,3.31,0,0,0,534.72,206.67Z" style="fill:#263238"></path><path d="M535.43,195.13c.46.42,2.92-1.72,6.63-2s6.57,1.35,6.94.87c.18-.22-.32-1-1.58-1.77a9.46,9.46,0,0,0-5.59-1.24,9,9,0,0,0-5.23,2.16C535.53,194.1,535.21,195,535.43,195.13Z" style="fill:#263238"></path><path d="M525.41,223.58c0-.21-2.33-.43-6.1-.61-1,0-1.87-.14-2.08-.77a4.84,4.84,0,0,1,.41-2.86c.7-2.36,1.44-4.83,2.22-7.43,3.07-10.57,5.21-19.23,4.78-19.35s-3.26,8.35-6.32,18.92L516.21,219c-.27,1.1-.79,2.37-.19,3.75a2.35,2.35,0,0,0,1.66,1.26,6.34,6.34,0,0,0,1.63.1C523.08,224,525.42,223.79,525.41,223.58Z" style="fill:#263238"></path><path d="M536.53,225.27c-.61,0-.29,4-3.51,7.17s-7.54,3-7.52,3.59c0,.26,1,.71,2.83.61a10,10,0,0,0,6.3-2.77,8.78,8.78,0,0,0,2.68-6C537.33,226.19,536.8,225.23,536.53,225.27Z" style="fill:#263238"></path><path d="M534.54,184.55c.52.92,3.64-.2,7.52-.44s7.18.3,7.51-.69c.13-.47-.58-1.29-2-2a11.58,11.58,0,0,0-5.88-1,11.13,11.13,0,0,0-5.57,1.91C534.85,183.18,534.31,184.1,534.54,184.55Z" style="fill:#263238"></path><path d="M500,188.24c.65.85,3.21,0,6.29-.06s5.69.59,6.29-.3c.27-.42-.14-1.27-1.28-2.07a9.12,9.12,0,0,0-10.14.28C500.11,187,499.75,187.83,500,188.24Z" style="fill:#263238"></path><path d="M495.49,174.59s5.16-15.61,12.16-19.72c8.48-5,13.05,4.41,21.26,1.39s16.31-7.79,25.42-2c10,6.36,6,11.7,7.4,22.36,5.81,43.21,14.72,54.85,15.34,34.23.07-2.26,6.14-4.54,6.31-14.07.21-12.37-.5-27.3-3.94-35.79-2.89-7.15-7.48-11.89-15.43-16.88-12.55-7.88-28.83-6.77-39.79-4.78S493,155.76,495.49,174.59Z" style="fill:#263238"></path><path d="M575.48,210.33a6.56,6.56,0,0,1,6.57-6.87c4.53.07,9.74,2.22,10.18,11.54.79,16.54-16,13.92-16,13.45S575.75,217.25,575.48,210.33Z" style="fill:#ffbe9d"></path><path d="M579.51,222.05c.07-.05.3.19.8.39a2.82,2.82,0,0,0,2.15-.06c1.72-.72,3.06-3.57,3-6.55a9.48,9.48,0,0,0-1-4.08,3.32,3.32,0,0,0-2.27-2.11,1.46,1.46,0,0,0-1.66.87c-.2.47-.08.8-.17.83s-.37-.26-.27-1a1.92,1.92,0,0,1,.6-1.07,2.19,2.19,0,0,1,1.58-.49,4,4,0,0,1,3.13,2.42,9.8,9.8,0,0,1,1.22,4.56c0,3.33-1.51,6.53-3.86,7.34a3.12,3.12,0,0,1-2.66-.31C579.56,222.45,579.45,222.09,579.51,222.05Z" style="fill:#eb996e"></path><path d="M572.61,178.41c-2,1.63-4.17,3.32-6.73,3.78s-5.63-.79-6.27-3.31c-.29-1.13-.11-2.49-.94-3.31-1-1-2.62-.53-4-.27a10.57,10.57,0,0,1-11.53-6.68c-1.07,1.93-3.93,2.08-5.88,1s-3.29-2.91-4.87-4.45-3.73-2.86-5.89-2.38c-1.21.27-2.29,1.09-3.52,1.08-2.18,0-3.44-2.47-3.94-4.6s-1-4.61-2.88-5.63-3.94-.15-5.91.31-4.59.19-5.25-1.72a3.9,3.9,0,0,1,.5-3.05,10.71,10.71,0,0,1,12.28-5.05,14.52,14.52,0,0,1,26.38-4.93,14.74,14.74,0,0,1,23.91,3.48,10.68,10.68,0,0,1,13.24,14.54c3.1,1.45,5.88,4.2,6.21,7.6s-2.72,7.08-6.09,6.44a5.92,5.92,0,0,1-9.73,6.7" style="fill:#263238"></path><path d="M582.65,171.17c.05,0,.42,1.36-.77,3.25a5.37,5.37,0,0,1-3.15,2.24,5.71,5.71,0,0,1-4.81-1l.69-.16a16.84,16.84,0,0,1-3,4.37,9.44,9.44,0,0,1-2.85,2.11,6.38,6.38,0,0,1-3.3.57,6.47,6.47,0,0,1-5-2.35,9.37,9.37,0,0,1-1.61-3.32,3.37,3.37,0,0,1-.24-1.32c.07,0,.25.42.59,1.19a11,11,0,0,0,1.77,3c1.75,2.24,6.94,3,9.93-.56a16.57,16.57,0,0,0,2.83-4.1l.25-.51.44.35a5.09,5.09,0,0,0,4.08.95,4.87,4.87,0,0,0,2.86-1.82A8,8,0,0,0,582.65,171.17Z" style="fill:#455a64"></path><path d="M548.48,136c0,.06-.42.15-1.13.52a5.71,5.71,0,0,0-2.39,2.38l-.17.33-.25-.28a20.52,20.52,0,0,0-8.49-5.82,16.06,16.06,0,0,0-6.61-.91,13.49,13.49,0,0,0-6.82,2.55,13.73,13.73,0,0,0-3.85,4.28,11.2,11.2,0,0,0-1.41,5.11v.53l-.51-.1a9.31,9.31,0,0,0-6.79,1.38,9.07,9.07,0,0,0-3.43,4.32,12.36,12.36,0,0,0-.64,5,3.38,3.38,0,0,1-.31-1.34,9.28,9.28,0,0,1,.45-3.81,9.44,9.44,0,0,1,3.51-4.75,10,10,0,0,1,7.37-1.63l-.52.43a11.93,11.93,0,0,1,1.48-5.57,14.43,14.43,0,0,1,4.1-4.59,14.24,14.24,0,0,1,7.31-2.7,16.72,16.72,0,0,1,7,1,20.11,20.11,0,0,1,8.6,6.28l-.42,0a5.65,5.65,0,0,1,2.73-2.39A2.65,2.65,0,0,1,548.48,136Z" style="fill:#455a64"></path><path d="M640.28,369c-.91,0-2.81-77.45-2.81-77.45l-52.89-18.88L544,309.22l-20.71-32.6L505.06,285c-2.3,1.06-12.39,5.1-14.4,6.63-5.78,4.41-17.85,15-21.26,27.84-5.2,19.65-13.36,85-13.36,85L406.36,422l1.08,32,48.62,7.61c11.73-.42,25.93-5.38,30.5-13.52v17.08H635.93S641.18,369,640.28,369Z" style="fill:#3A548A"></path><path d="M488.36,339.54a2,2,0,0,1,0,.32v.95c0,.86,0,2.07,0,3.62-.06,3.14-.19,7.68-.44,13.3s-.6,12.3-.87,19.72-.37,15.58-.42,24.15c-.08,17.15,0,32.68,0,43.92,0,5.59,0,10.13,0,13.31,0,1.54,0,2.75,0,3.61,0,.39,0,.7,0,.94a1.19,1.19,0,0,1,0,.33,1.34,1.34,0,0,1,0-.32c0-.24,0-.56,0-.95,0-.86-.05-2.07-.08-3.61,0-3.18-.09-7.72-.16-13.31-.1-11.24-.2-26.77-.12-43.92.05-8.57.16-16.74.46-24.17s.69-14.11,1-19.72.49-10.15.61-13.29c.06-1.54.1-2.76.14-3.62,0-.39,0-.7.05-.94A1.34,1.34,0,0,1,488.36,339.54Z" style="fill:#263238"></path><g style="opacity:0.30000000000000004"><path d="M488.36,346.89c-8.47,31.94-10.72,66.55-2.21,98.48C486.31,409.82,486.11,376.53,488.36,346.89Z"></path></g><g style="opacity:0.30000000000000004"><path d="M612.75,350.21Q617.4,380.12,622,410a4,4,0,0,0,.65,1.94c1,1.26,2.94.93,4.48.49,3.74-1.09,9.63-1.49,11.65-4.83l.49-8.51c-.54-2.58-3-5.06-4.21-7.42q-10.89-22-21.76-44"></path></g><path d="M637.08,291.4s17.27,9.72,23.67,23.4c7.81,16.69,42.37,76.82,43.65,91.82s.76,32.15-24.83,37.26-52.31,4.77-52.31,4.77l-10.43-31.08,29.33-15.15L638.85,396a17.11,17.11,0,0,1-3.9-5l-22.07-42.5" style="fill:#3A548A"></path><path d="M612.88,348.52s.2.33.55,1l1.56,2.94,5.93,11.31,9.32,17.85,2.82,5.4,1.47,2.82a25.82,25.82,0,0,0,1.61,2.84,17.19,17.19,0,0,0,2.15,2.55c.81.78,1.71,1.52,2.58,2.3l5.42,4.75.22.19-.26.13-29.32,15.18.11-.27,10.46,31.07-.23-.17c8.48,0,17.34-.39,26.43-1.19,4.55-.39,9.15-.9,13.79-1.56s9.33-1.39,14-2.49l2.3-.56c.76-.21,1.5-.5,2.24-.75s1.5-.48,2.22-.79l2.12-1c.36-.17.71-.32,1.06-.5l1-.61c.66-.41,1.33-.8,2-1.23a26.42,26.42,0,0,0,3.46-3,21.36,21.36,0,0,0,4.75-7.71,33.24,33.24,0,0,0,1.82-8.79,69.2,69.2,0,0,0,0-8.88,38.41,38.41,0,0,0-.45-4.34,39.36,39.36,0,0,0-1.11-4.17c-.87-2.75-1.91-5.4-3-8s-2.22-5.15-3.35-7.66c-4.61-10-9.38-19.35-13.89-28.07s-8.81-16.77-12.7-24.14l-5.52-10.55c-.86-1.67-1.69-3.3-2.47-4.89-.38-.8-.76-1.58-1.14-2.36s-.77-1.5-1.15-2.23a45,45,0,0,0-5.36-7.47,68.29,68.29,0,0,0-5.5-5.45,83.1,83.1,0,0,0-8.5-6.54c-1-.69-1.81-1.19-2.34-1.52l-.8-.51s.29.15.83.46,1.34.81,2.37,1.48a78.79,78.79,0,0,1,8.57,6.48,66.57,66.57,0,0,1,5.56,5.44,45.14,45.14,0,0,1,5.42,7.49c.39.73.8,1.48,1.18,2.25s.75,1.55,1.14,2.34c.79,1.59,1.62,3.21,2.48,4.88q2.64,5,5.55,10.52c3.92,7.37,8.23,15.42,12.77,24.13s9.31,18,13.93,28.06c1.15,2.51,2.29,5.06,3.37,7.67s2.13,5.28,3,8a37.21,37.21,0,0,1,1.13,4.24,38.38,38.38,0,0,1,.46,4.4,70.28,70.28,0,0,1,0,9,33.73,33.73,0,0,1-1.84,8.93,21.7,21.7,0,0,1-4.87,7.88,25.66,25.66,0,0,1-3.53,3.12c-.65.43-1.33.83-2,1.25l-1,.62-1.08.51-2.15,1c-.73.32-1.5.53-2.25.8s-1.5.54-2.26.76l-2.33.56c-4.68,1.11-9.37,1.84-14,2.5s-9.26,1.17-13.81,1.57c-9.11.79-18,1.19-26.49,1.17h-.18l-.05-.17c-3.67-10.93-7.17-21.4-10.42-31.09l-.06-.18.17-.09,29.35-15.13,0,.32-5.41-4.76c-.87-.78-1.76-1.51-2.59-2.32a17.86,17.86,0,0,1-2.18-2.61,27.74,27.74,0,0,1-1.63-2.88c-.49-1-1-1.9-1.46-2.83q-1.44-2.79-2.8-5.4c-3.59-7-6.7-13-9.24-17.9l-5.83-11.35c-.66-1.3-1.17-2.29-1.51-3S612.88,348.52,612.88,348.52Z" style="fill:#263238"></path><path d="M629.21,290.35a16.81,16.81,0,0,1-1.6,1,42.62,42.62,0,0,0-4.2,3A39.34,39.34,0,0,0,608.86,324a43.08,43.08,0,0,0,.18,5.17c.11,1.22.2,1.89.16,1.9a2,2,0,0,1-.13-.48c-.05-.32-.16-.79-.23-1.4a33.55,33.55,0,0,1-.34-5.2,38.22,38.22,0,0,1,14.68-29.91,35.84,35.84,0,0,1,4.32-2.91c.53-.32,1-.52,1.25-.66S629.2,290.33,629.21,290.35Z" style="fill:#263238"></path><path d="M677.32,389.85a5.75,5.75,0,0,1-1.28.37l-3.51.88a99.06,99.06,0,0,0-11.35,3.66,84.32,84.32,0,0,0-10.74,5.16c-1.33.76-2.39,1.39-3.12,1.85a6.76,6.76,0,0,1-1.16.65,6.88,6.88,0,0,1,1.05-.82c.7-.51,1.73-1.19,3-2A70.94,70.94,0,0,1,661,394.28a80.58,80.58,0,0,1,11.45-3.54c1.49-.34,2.71-.58,3.56-.72A7.31,7.31,0,0,1,677.32,389.85Z" style="fill:#263238"></path><g style="opacity:0.30000000000000004"><path d="M583.1,274.49a9.45,9.45,0,0,0-4.21,2.09,203.85,203.85,0,0,0-33.08,30.49l-1.68,3.11c3.73-2.46,8-5,12.36-4.13,3.74.79,6.45,3.92,8.88,6.87a311.86,311.86,0,0,0,24.46-35.61C587.85,275.78,585.58,274.17,583.1,274.49Z"></path></g><polygon points="543.97 309.22 558.89 290.35 581.33 263.56 593.25 274.75 572.35 307.11 557.51 298.18 543.97 309.22" style="fill:#fff"></polygon><g style="opacity:0.30000000000000004"><path d="M517.05,284.82c2,10.62,6.91,19.48,8.9,30.1,2.37-3.1,1.8-4.42,4.17-7.52a8.54,8.54,0,0,1,3.47-3.09c2.55-1,5.36.49,7.68,1.91a86.65,86.65,0,0,0-11.93-10.93l-.18.86q-6-7.45-12.29-14.67"></path></g><polygon points="543.74 309.11 522.78 273.39 522.78 273.39 515.29 280.29 522.38 312.25 532.44 299.3 543.74 309.11" style="fill:#fff"></polygon><path d="M542.9,307.68l-.38-.59-1.06-1.76-4-6.79-14.8-25.05.28,0-7.54,6.62.06-.2c2.16,9.68,4.58,20.53,7.2,32.25l-.43-.1,10-13,.16-.21.2.17,11.31,9.81-.22-.06,1.22-.23-.13.06c3.63-3.23,7.65-6.42,11.56-9.82l1-.88.14-.12.16.09c5.21,2.78,9.89,6.23,14.84,8.93l-.34.09,20.91-32.35,0,.3c-4.14-3.91-8.12-7.65-11.9-11.2l.31,0-26.35,32-7.37,8.89L545.83,307c-.45.52-.69.78-.69.78s.21-.28.64-.82l1.89-2.37,7.27-9,26.22-32.15.15-.17.17.15,11.92,11.18.15.13-.11.16-20.87,32.38-.13.2-.21-.12c-5-2.72-9.67-6.17-14.84-8.92l.3,0-1,.88c-3.93,3.42-8,6.6-11.56,9.82l-.06,0-.07,0-1.21.23-.12,0-.1-.08-11.3-9.81.37,0L522.57,312.4l-.31.41-.11-.51L515,280l0-.12.09-.08,7.57-6.59.17-.15.11.2,14.66,25.13,3.95,6.84,1,1.79C542.8,307.46,542.9,307.68,542.9,307.68Z" style="fill:#263238"></path><path d="M487,300c.14,0,0,6.5-.21,14.52S486.18,329,486,329s-.05-6.5.21-14.52S486.84,300,487,300Z" style="fill:#263238"></path><path d="M575.7,421.33a10.53,10.53,0,0,0-3.65,1.33c-2.68,1.81-3.28,5.43-3.64,8.65-.11,1-.14,2.21.69,2.8a2.86,2.86,0,0,0,2.46,0,76.36,76.36,0,0,0,15.73-7c2.65-1.55,5.38-3.5,6.28-6.43l.17-1.26A75.11,75.11,0,0,0,575.7,421.33Z" style="fill:#ffbe9d"></path><path d="M599.35,395.28c-9.79,11.77-46.21,55.27-46.21,55.27l-1.39,6.24a.5.5,0,0,0,.67.57l5.86-2.31,47.05-54.7a3.92,3.92,0,0,0-.58-5.66h0A3.91,3.91,0,0,0,599.35,395.28Z" style="fill:#263238"></path><polygon points="595.85 399.49 601.79 404.47 603.44 402.55 597.48 397.53 595.85 399.49" style="fill:#455a64"></polygon><path d="M588.73,415.52a2.05,2.05,0,0,1-1.35-.5l0,0a2.11,2.11,0,0,1-.69-1.39,2.09,2.09,0,0,1,.5-1.53l6.82-8a2.09,2.09,0,0,1,1.43-.74,2.1,2.1,0,0,1,1.77,3.46l-6.82,8a2.11,2.11,0,0,1-1.43.74Zm-1.15-.65a1.86,1.86,0,0,0,2.57-.25l6.82-8a1.85,1.85,0,1,0-2.82-2.39l-6.82,8a1.86,1.86,0,0,0-.44,1.35,1.83,1.83,0,0,0,.65,1.26Z" style="fill:#455a64"></path><path d="M593.66,410.71c-.1.1-.82-.41-1.62-1.15s-1.35-1.42-1.26-1.52.82.41,1.62,1.14S593.75,410.6,593.66,410.71Z" style="fill:#455a64"></path><path d="M617.19,419.4,608,422.61s-8.43-2.12-12-2.94a9.2,9.2,0,0,0-7.11,1.25c-4.32,2.8-11.75,7.62-14.41,9.39s-9.45,7.39-9.45,7.39-4.93,5.65-3.32,8.89,6.07,2.78,6.07,2.78a6.73,6.73,0,0,0,5.34,5s-1.12,1.76,3.09,2.88,14,0,14,0,18,.74,19.71-.13,9.29-8.58,9.29-8.58l6.42-3.84Z" style="fill:#ffbe9d"></path><path d="M581.64,425.64a21.76,21.76,0,0,1-2.74,2c-1.73,1.19-4.15,2.78-6.73,4.65a66.3,66.3,0,0,0-6.31,5.17c-1.52,1.42-2.4,2.38-2.46,2.32s.16-.28.53-.74.94-1.1,1.67-1.85a50.63,50.63,0,0,1,6.27-5.32c2.59-1.88,5-3.43,6.83-4.54A21.82,21.82,0,0,1,581.64,425.64Z" style="fill:#eb996e"></path><path d="M590,434a4.61,4.61,0,0,1-.91.56L586.57,436c-2.16,1.17-5.13,2.8-8.25,4.85a61,61,0,0,0-7.57,5.83c-1.81,1.65-2.85,2.76-2.91,2.71a3.94,3.94,0,0,1,.65-.85c.44-.53,1.13-1.26,2-2.13a50.53,50.53,0,0,1,7.53-6,81.27,81.27,0,0,1,8.37-4.74c1.1-.54,2-1,2.64-1.24A3.59,3.59,0,0,1,590,434Z" style="fill:#eb996e"></path><path d="M599.15,440.62a4.59,4.59,0,0,1-.83.81c-.56.48-1.41,1.16-2.48,1.93-2.15,1.58-5.29,3.48-8.77,5.54a47.12,47.12,0,0,1-9.52,4.14c-1.27.41-2.3.71-3,.91a5.61,5.61,0,0,1-1.13.25,4.84,4.84,0,0,1,1.06-.45c.81-.28,1.79-.64,3-1.06a54.35,54.35,0,0,0,9.37-4.24c3.49-2.06,6.64-3.9,8.83-5.39,1.09-.73,2-1.36,2.56-1.79A5.4,5.4,0,0,1,599.15,440.62Z" style="fill:#eb996e"></path><path d="M603.05,448.65a7.78,7.78,0,0,1-1.54,1.58,33.05,33.05,0,0,1-4.25,3.19,34.11,34.11,0,0,1-4.69,2.49,7.63,7.63,0,0,1-2.09.72c-.06-.15,3-1.44,6.5-3.65S602.94,448.53,603.05,448.65Z" style="fill:#eb996e"></path><path d="M653.84,465.64H518.22a8.73,8.73,0,0,1,8.73-8.73H645.11a8.73,8.73,0,0,1,8.73,8.73Z" style="fill:#263238"></path><path d="M489.92,458.19l-62.72-.3L405.94,357.21a9,9,0,0,0-8.77-7.14H266.1a9,9,0,0,0-8.75,10.87l21.59,99a7.22,7.22,0,0,0,7.06,5.68H499C499,460.55,495,458.19,489.92,458.19Z" style="fill:#e0e0e0"></path><path d="M423.07,465.64c-.14,0-6.05-25.81-13.2-57.72s-12.84-57.81-12.7-57.85,6.05,25.81,13.21,57.73S423.21,465.61,423.07,465.64Z" style="fill:#263238"></path><path d="M345.58,406.38c3.11,4.18,2.62,9.81-1.09,12.56s-9.23,1.6-12.34-2.58-2.62-9.81,1.09-12.56S342.47,402.2,345.58,406.38Z" style="fill:#fff"></path><rect x="451.73" y="459.54" width="9.08" height="4.16" rx="2.08" style="fill:#263238"></rect><path d="M548.46,461.21s.1.09.27.29a2.66,2.66,0,0,1,.45,1.06,4.29,4.29,0,0,1-1.65,4,5.94,5.94,0,0,1-3,1.13,16.44,16.44,0,0,1-3.81-.1,21.61,21.61,0,0,0-4.32-.25,6.69,6.69,0,0,0-2.25.52,3.32,3.32,0,0,0-1.78,1.49,2.12,2.12,0,0,0,.49,2.24,5.29,5.29,0,0,0,2.16,1.5,21.37,21.37,0,0,1,2.65,1.14,3.59,3.59,0,0,1,1.83,2.44,4.92,4.92,0,0,1-3.31,5.09,19.28,19.28,0,0,1-6.62.83,109.78,109.78,0,0,1-14.21-.92c-4.9-.58-10-1.3-15.16-1.77a79.61,79.61,0,0,0-15.2,0c-4.9.45-9.63,1.13-14.18,1.21a24,24,0,0,1-6.64-.59,9.32,9.32,0,0,1-5.3-3.36,6.65,6.65,0,0,1-1.23-5.68,4.06,4.06,0,0,1,4.25-3,2.31,2.31,0,0,1,1.94,1.66,2.92,2.92,0,0,1-.48,2.4,3,3,0,0,1-1.94,1.26,3.79,3.79,0,0,1-2.15-.29,5.1,5.1,0,0,1-2.63-2.75,9.51,9.51,0,0,1-.66-3.14c-.08-1.93.1-3.42.1-4.42,0-.51,0-.89,0-1.15a1.91,1.91,0,0,1,0-.39,2.94,2.94,0,0,1,.05.39c0,.26.05.64.06,1.15,0,1-.1,2.5,0,4.4a9.2,9.2,0,0,0,.69,3.06,4.82,4.82,0,0,0,2.51,2.58,3.52,3.52,0,0,0,2,.26,2.63,2.63,0,0,0,1.72-1.15,2.6,2.6,0,0,0,.43-2.11,2,2,0,0,0-1.66-1.39,3.68,3.68,0,0,0-3.82,2.74,6.29,6.29,0,0,0,1.2,5.32,8.83,8.83,0,0,0,5.07,3.16,23.22,23.22,0,0,0,6.51.56c4.52-.09,9.23-.78,14.15-1.24a79.72,79.72,0,0,1,15.29,0c5.22.47,10.28,1.2,15.17,1.78a111.09,111.09,0,0,0,14.15.95c2.24-.05,4.5,0,6.45-.78a5,5,0,0,0,2.36-1.83,3.88,3.88,0,0,0,.69-2.75,3.12,3.12,0,0,0-1.61-2.16,19.44,19.44,0,0,0-2.6-1.13,5.78,5.78,0,0,1-2.3-1.62,3.18,3.18,0,0,1-.65-1.25,2.14,2.14,0,0,1,.13-1.39,3.58,3.58,0,0,1,2-1.66,7.53,7.53,0,0,1,2.37-.54,22.46,22.46,0,0,1,4.37.3,16.17,16.17,0,0,0,3.76.14,5.66,5.66,0,0,0,2.9-1,4.2,4.2,0,0,0,1.68-3.78A2.87,2.87,0,0,0,548.46,461.21Z" style="fill:#263238"></path><path d="M652.22,461.25c0,.14-29.76.26-66.46.26s-66.47-.12-66.47-.26S549,461,585.76,461,652.22,461.1,652.22,461.25Z" style="fill:#455a64"></path></g><g id="freepik--speech-bubble--inject-14"><path d="M602.28,163.39l17.43-2.67a53.39,53.39,0,1,0-13.83-13.21l0,0Z" style="fill:#fff"></path><path d="M602.28,163.39l.21-1,.66-3c.59-2.7,1.47-6.69,2.6-11.87a.11.11,0,0,1,.13-.09l0,0h0l-.16.15a54.06,54.06,0,0,1-5.85-10.19A52.58,52.58,0,0,1,596,123.32a52.06,52.06,0,0,1-.48-8.3,60,60,0,0,1,1-8.86,53,53,0,0,1,7-18.13,53.24,53.24,0,0,1,60.66-23.16,55.26,55.26,0,0,1,11.83,5l2.73,1.78,1.38.9c.45.31.86.67,1.29,1L684,75.65c.85.7,1.6,1.51,2.41,2.27a49.86,49.86,0,0,1,4.39,4.81l.53.61.47.66.92,1.33c.61.89,1.28,1.74,1.82,2.66s1.05,1.86,1.58,2.79c.26.46.53.92.78,1.39l.64,1.46,1.29,2.89c.4,1,.68,2,1,3a53.48,53.48,0,0,1-38.37,68.65l-2.22.5-1.1.24-1.11.13c-1.47.17-2.91.37-4.33.51a73.28,73.28,0,0,1-8.28-.08,53.19,53.19,0,0,1-24.79-8.64l.08,0-13,1.91-3.32.49-1.11.15,1.15-.2,3.34-.53,12.93-2,.07,0A53.75,53.75,0,0,0,630.3,166a52.91,52.91,0,0,0,14.17,3.16,70.09,70.09,0,0,0,8.22.06c1.41-.15,2.85-.34,4.31-.52l1.1-.13,1.08-.25,2.21-.5a53,53,0,0,0,38-68.1c-.34-1-.63-2-1-3l-1.28-2.87-.64-1.44c-.24-.46-.51-.91-.77-1.38q-.78-1.36-1.56-2.76c-.54-.91-1.2-1.75-1.8-2.63l-.92-1.31-.46-.66-.53-.61A50,50,0,0,0,686,78.29c-.8-.75-1.55-1.55-2.39-2.25l-2.55-2c-.43-.33-.84-.69-1.28-1l-1.37-.89-2.71-1.76a55.12,55.12,0,0,0-11.7-5,52.51,52.51,0,0,0-45.53,7.45,53.23,53.23,0,0,0-14.62,15.45,52.65,52.65,0,0,0-7,18,59.13,59.13,0,0,0-1,8.8,52.58,52.58,0,0,0,.44,8.24A53.35,53.35,0,0,0,606,147.44a.12.12,0,0,1,0,.16.11.11,0,0,1-.13,0l0,0,.17-.06c-1.18,5.14-2.09,9.09-2.71,11.78-.31,1.33-.55,2.35-.71,3.05S602.28,163.39,602.28,163.39Z" style="fill:#263238"></path><path d="M664.29,138.51l-13.24,6a12.79,12.79,0,0,1-16.94-6.35l-13-28.53L657.67,93l13,28.53A12.8,12.8,0,0,1,664.29,138.51Z" style="fill:#e0e0e0"></path><path d="M664.29,138.51a19.21,19.21,0,0,0,3.13-2.12,13.34,13.34,0,0,0,2.73-3.55,12.4,12.4,0,0,0,1.47-5.78,12,12,0,0,0-.45-3.5,22.3,22.3,0,0,0-1.46-3.6l-3.65-8-8.61-18.85.32.12L632.9,104.58l-11.65,5.29.13-.34,10.77,23.78c.83,1.8,1.6,3.59,2.41,5.26a12.61,12.61,0,0,0,12.24,6.88c2.94-.18,5.28-1.63,7.42-2.51l5.44-2.43,3.42-1.51.9-.38a1.32,1.32,0,0,1,.31-.11,2.18,2.18,0,0,1-.29.16l-.88.42-3.38,1.59-5.41,2.5-3.4,1.55a12.49,12.49,0,0,1-4.1,1.05,12.91,12.91,0,0,1-12.65-7c-.84-1.69-1.6-3.46-2.44-5.26-3.29-7.23-6.94-15.24-10.83-23.76l-.1-.23.23-.11,11.65-5.29,24.88-11.29.22-.1.1.22c3.1,6.85,6,13.2,8.54,18.88l3.61,8a24.3,24.3,0,0,1,1.45,3.67,12.13,12.13,0,0,1,.43,3.58,12.58,12.58,0,0,1-1.56,5.89,12.27,12.27,0,0,1-5.19,5.15l-.66.31A1,1,0,0,1,664.29,138.51Z" style="fill:#263238"></path><path d="M621.46,109.83c7.07,1.45,13.71,1.51,20.22-1.61s12.8-8.52,16.1-15Z" style="fill:#3A548A"></path><path d="M660.33,98.9s.24.21.63.66l1.66,2c1.48,1.86,3.51,4.39,6,7.47l4.1,5.19c.73,1,1.51,1.84,2.27,2.94a7.4,7.4,0,0,1,1.17,3.88,7.51,7.51,0,0,1-4.46,7l-8.17,3.77-4.15,1.91a20.57,20.57,0,0,1-4.21,1.61,12.79,12.79,0,0,1-8.43-1,13.32,13.32,0,0,1-3.28-2.3c-.92-.91-1.73-1.8-2.56-2.66l-4.56-4.78-6.56-7L628,115.77a3.61,3.61,0,0,1-.57-.71,4,4,0,0,1,.69.59l1.86,1.82c1.68,1.68,4,4,6.75,6.79,1.43,1.44,3,3,4.63,4.71s3.3,3.68,5.69,4.74a12,12,0,0,0,7.91.87,19.81,19.81,0,0,0,4-1.57l4.15-1.91,8.18-3.75a7,7,0,0,0,3-2.61,6.81,6.81,0,0,0,1-3.68,6.69,6.69,0,0,0-1-3.5c-.67-1-1.5-2-2.2-2.92l-4-5.24-5.77-7.64-1.54-2.1A4.34,4.34,0,0,1,660.33,98.9Z" style="fill:#263238"></path><path d="M630,114.58a2.22,2.22,0,1,1-2.94-1.1A2.22,2.22,0,0,1,630,114.58Z" style="fill:#263238"></path><path d="M657.46,93.58c.58.77-.22,2.11.2,3a4.34,4.34,0,0,1-.84,4.92,1.46,1.46,0,0,0-.26.34,4.16,4.16,0,0,0,.1,3l1.41,4.89a8.46,8.46,0,0,1,.49,3.1,2.88,2.88,0,0,1-1.66,2.5c-1.42.54-3-.56-3.79-1.84-1-1.59-1.54-3.58-3.39-4.54a2.29,2.29,0,0,0-2.64.28c-1.75,1.72,1,4.47-.59,6.14a2,2,0,0,1-1.79.51,5.27,5.27,0,0,1-3-2.31l-3.78-4.78,19.56-15.19" style="fill:#3A548A"></path></g></svg>